<svg aria-hidden="true" style="position: absolute; width: 0; height: 0; overflow: hidden;" version="1.1" xmlns="http://www.w3.org/2000/svg" xmlns:xlink="http://www.w3.org/1999/xlink">
<defs>
<symbol id="icon-tiktok" viewBox="0 0 32 32">
<path d="M29.7 8.4c-1.988-0.002-3.895-0.793-5.301-2.199s-2.197-3.312-2.199-5.301c0-0.239-0.095-0.468-0.264-0.636s-0.398-0.264-0.636-0.264h-6c-0.239 0-0.468 0.095-0.636 0.264s-0.264 0.398-0.264 0.636v19.8c-0 0.59-0.159 1.17-0.46 1.678s-0.732 0.926-1.249 1.211c-0.517 0.285-1.102 0.425-1.692 0.407s-1.165-0.194-1.664-0.51c-0.499-0.316-0.904-0.76-1.173-1.285s-0.392-1.114-0.356-1.703c0.036-0.589 0.229-1.158 0.56-1.648s0.786-0.881 1.32-1.134c0.154-0.073 0.284-0.188 0.375-0.332s0.139-0.311 0.139-0.481v-6.404c-0-0.131-0.029-0.26-0.084-0.379s-0.136-0.224-0.235-0.308c-0.1-0.084-0.217-0.146-0.343-0.18s-0.258-0.041-0.387-0.019c-5.22 0.928-9.15 5.694-9.15 11.086 0 2.944 1.169 5.767 3.251 7.849s4.905 3.251 7.849 3.251 5.767-1.169 7.849-3.251c2.082-2.082 3.251-4.905 3.251-7.849v-6.46c2.288 1.291 4.872 1.967 7.5 1.96 0.239 0 0.468-0.095 0.636-0.264s0.264-0.398 0.264-0.636v-6c0-0.239-0.095-0.468-0.264-0.636s-0.398-0.264-0.636-0.264zM28.8 14.37c-2.514-0.161-4.932-1.028-6.975-2.504-0.135-0.097-0.293-0.154-0.459-0.167s-0.331 0.021-0.478 0.097c-0.148 0.076-0.271 0.191-0.357 0.333s-0.132 0.304-0.131 0.47v8.1c0 2.467-0.98 4.832-2.724 6.576s-4.11 2.724-6.576 2.724-4.832-0.98-6.576-2.724c-1.744-1.744-2.724-4.11-2.724-6.576 0-4.158 2.77-7.872 6.6-9.057v4.729c-0.753 0.47-1.371 1.128-1.791 1.91s-0.63 1.66-0.607 2.548c0.023 0.887 0.277 1.754 0.737 2.513s1.111 1.385 1.887 1.816c0.776 0.431 1.652 0.651 2.539 0.64s1.757-0.254 2.522-0.704c0.765-0.45 1.399-1.093 1.84-1.863s0.673-1.643 0.673-2.531v-18.9h4.244c0.211 2.145 1.159 4.15 2.683 5.673s3.529 2.472 5.673 2.683v4.213z"></path>
</symbol>
<symbol id="icon-twitch" viewBox="0 0 32 32">
<path d="M27.7 0h-24c-0.557 0-1.091 0.221-1.485 0.615s-0.615 0.928-0.615 1.485v21.6c0 0.557 0.221 1.091 0.615 1.485s0.928 0.615 1.485 0.615h2.7v5.1c0 0.171 0.049 0.339 0.141 0.483s0.223 0.26 0.378 0.332c0.155 0.073 0.327 0.1 0.497 0.078s0.33-0.092 0.461-0.201l6.867-5.723c0.054-0.045 0.122-0.069 0.192-0.069h6.33c0.493 0.001 0.971-0.172 1.35-0.488l6.435-5.362c0.236-0.198 0.425-0.445 0.555-0.724s0.196-0.583 0.196-0.89v-16.236c0-0.557-0.221-1.091-0.615-1.485s-0.928-0.615-1.485-0.615zM28 18.337c0 0.044-0.010 0.088-0.028 0.128s-0.046 0.075-0.080 0.103l-6.435 5.363c-0.054 0.045-0.122 0.069-0.192 0.069h-6.33c-0.493-0.001-0.971 0.172-1.35 0.488l-5.385 4.491v-4.079c0-0.239-0.095-0.468-0.264-0.636s-0.398-0.264-0.636-0.264h-3.6c-0.080 0-0.156-0.032-0.212-0.088s-0.088-0.133-0.088-0.212v-21.6c0-0.080 0.032-0.156 0.088-0.212s0.133-0.088 0.212-0.088h24c0.080 0 0.156 0.032 0.212 0.088s0.088 0.133 0.088 0.212v16.237zM22.6 8.1v7.2c0 0.239-0.095 0.468-0.264 0.636s-0.398 0.264-0.636 0.264-0.468-0.095-0.636-0.264c-0.169-0.169-0.264-0.398-0.264-0.636v-7.2c0-0.239 0.095-0.468 0.264-0.636s0.398-0.264 0.636-0.264 0.468 0.095 0.636 0.264c0.169 0.169 0.264 0.398 0.264 0.636zM15.4 8.1v7.2c0 0.239-0.095 0.468-0.264 0.636s-0.398 0.264-0.636 0.264-0.468-0.095-0.636-0.264c-0.169-0.169-0.264-0.398-0.264-0.636v-7.2c0-0.239 0.095-0.468 0.264-0.636s0.398-0.264 0.636-0.264c0.239 0 0.468 0.095 0.636 0.264s0.264 0.398 0.264 0.636z"></path>
</symbol>
<symbol id="icon-whatsapp" viewBox="0 0 32 32">
<path d="M24.105 18.095l-4.8-2.4c-0.142-0.070-0.3-0.102-0.458-0.092s-0.311 0.062-0.442 0.149l-2.352 1.568c-1.191-0.61-2.16-1.578-2.769-2.769l1.569-2.351c0.088-0.132 0.139-0.284 0.149-0.442s-0.022-0.316-0.092-0.458l-2.4-4.8c-0.075-0.15-0.19-0.277-0.332-0.365s-0.307-0.135-0.475-0.135c-1.512 0-2.962 0.601-4.030 1.67s-1.67 2.519-1.67 4.030c0.004 3.42 1.364 6.699 3.783 9.117s5.697 3.779 9.117 3.783c1.512 0 2.962-0.6 4.031-1.669s1.669-2.519 1.669-4.031c0-0.167-0.047-0.331-0.134-0.474s-0.214-0.257-0.364-0.332zM18.903 22.8c-2.943-0.004-5.764-1.174-7.845-3.255s-3.252-4.902-3.255-7.845c0-0.941 0.341-1.851 0.959-2.561s1.472-1.172 2.404-1.302l1.899 3.798-1.559 2.337c-0.082 0.123-0.132 0.265-0.146 0.412s0.008 0.296 0.065 0.432c0.828 1.968 2.393 3.533 4.361 4.36 0.137 0.057 0.285 0.079 0.432 0.065s0.289-0.064 0.412-0.146l2.337-1.558 3.798 1.899c-0.13 0.932-0.592 1.786-1.302 2.404s-1.619 0.959-2.561 0.959zM15.303 0c-2.652-0.001-5.259 0.688-7.565 1.999s-4.231 3.199-5.587 5.478c-1.356 2.279-2.096 4.872-2.148 7.524s0.587 5.271 1.853 7.602l-1.743 5.23c-0.123 0.37-0.141 0.767-0.052 1.147s0.283 0.727 0.559 1.003c0.276 0.276 0.623 0.469 1.003 0.559s0.777 0.072 1.147-0.052l5.231-1.743c2.047 1.111 4.322 1.74 6.649 1.839s4.647-0.335 6.781-1.269 4.027-2.342 5.534-4.119c1.507-1.776 2.589-3.873 3.162-6.131s0.624-4.617 0.148-6.897c-0.476-2.28-1.467-4.422-2.897-6.261s-3.261-3.328-5.353-4.352c-2.092-1.024-4.391-1.557-6.72-1.558zM15.303 28.8c-2.373 0.001-4.704-0.624-6.759-1.812-0.137-0.079-0.292-0.121-0.45-0.121-0.097 0-0.193 0.016-0.285 0.046l-5.609 1.869c-0.053 0.018-0.11 0.020-0.164 0.007s-0.104-0.040-0.143-0.080c-0.039-0.040-0.067-0.089-0.080-0.143s-0.010-0.111 0.007-0.164l1.869-5.603c0.040-0.121 0.055-0.249 0.042-0.376s-0.053-0.25-0.117-0.36c-1.489-2.572-2.088-5.564-1.703-8.512s1.732-5.685 3.831-7.789 4.835-3.456 7.782-3.846c2.946-0.39 5.94 0.202 8.515 1.687s4.589 3.777 5.728 6.522 1.34 5.79 0.573 8.661c-0.768 2.872-2.462 5.409-4.819 7.22s-5.246 2.792-8.218 2.793z"></path>
</symbol>
<symbol id="icon-youtube" viewBox="0 0 32 32">
<path d="M20.761 14.619l-6.857-4.571c-0.129-0.086-0.279-0.136-0.434-0.143s-0.309 0.027-0.446 0.101c-0.137 0.073-0.251 0.182-0.331 0.316s-0.122 0.286-0.121 0.441v9.143c-0 0.155 0.042 0.308 0.121 0.441s0.194 0.242 0.331 0.316c0.137 0.073 0.291 0.108 0.446 0.101s0.305-0.057 0.434-0.143l6.857-4.571c0.118-0.078 0.215-0.184 0.281-0.309s0.102-0.264 0.102-0.405c0-0.141-0.035-0.281-0.102-0.405s-0.164-0.231-0.281-0.309zM14.286 18.303v-5.94l4.454 2.97-4.454 2.97zM30.629 7.048c-0.124-0.482-0.361-0.927-0.69-1.3s-0.743-0.661-1.207-0.843c-4.874-1.887-12.693-1.857-13.017-1.857s-8.143-0.030-13.023 1.857c-0.462 0.182-0.875 0.471-1.203 0.844s-0.565 0.818-0.688 1.299c-0.364 1.413-0.8 4-0.8 8.286s0.436 6.873 0.8 8.286c0.124 0.482 0.361 0.927 0.691 1.3s0.743 0.662 1.207 0.843c4.874 1.887 12.691 1.857 13.017 1.857h0.101c0.987 0 8.286-0.063 12.921-1.857 0.463-0.181 0.877-0.47 1.207-0.843s0.567-0.818 0.691-1.3c0.364-1.41 0.8-3.99 0.8-8.286s-0.434-6.873-0.806-8.286zM28.969 23.191c-0.055 0.22-0.161 0.423-0.31 0.593s-0.336 0.303-0.547 0.387c-4.571 1.761-12.314 1.734-12.397 1.734s-7.816 0.029-12.393-1.738c-0.21-0.084-0.398-0.216-0.547-0.387s-0.255-0.374-0.31-0.593c-0.344-1.313-0.75-3.742-0.75-7.853s0.406-6.54 0.746-7.857c0.055-0.22 0.161-0.423 0.31-0.593s0.336-0.303 0.547-0.387c4.406-1.697 11.759-1.734 12.363-1.734h0.034c0.077 0 7.816-0.029 12.393 1.739 0.21 0.084 0.398 0.216 0.547 0.387s0.255 0.374 0.31 0.593c0.34 1.313 0.746 3.741 0.746 7.857s-0.402 6.536-0.741 7.853z"></path>
</symbol>
<symbol id="icon-twitter" viewBox="0 0 37 32">
<path d="M35.676 4.617c-0.075-0.181-0.202-0.337-0.365-0.446s-0.355-0.169-0.551-0.17h-5.267c-0.651-1.196-1.609-2.196-2.774-2.899s-2.498-1.083-3.859-1.101c-2.045-0.009-4.011 0.793-5.466 2.23s-2.283 3.392-2.3 5.437v1.45c-7.067-1.683-12.9-7.433-12.967-7.483-0.128-0.127-0.289-0.217-0.464-0.26s-0.359-0.038-0.532 0.015c-0.173 0.053-0.328 0.152-0.449 0.286s-0.204 0.298-0.239 0.475c-1.45 7.933 0.933 13.233 3.183 16.283 1.193 1.633 2.659 3.048 4.333 4.183-2.583 3.133-6.833 4.767-6.883 4.783-0.142 0.052-0.27 0.137-0.374 0.247s-0.181 0.242-0.226 0.387c-0.047 0.141-0.061 0.291-0.041 0.439s0.074 0.288 0.158 0.411c0.167 0.25 1.8 2.45 7.5 2.45 11.617 0 21.333-8.983 22.267-20.517l5.1-5.117c0.145-0.135 0.243-0.313 0.282-0.507s0.016-0.396-0.065-0.576zM28.676 9.667c-0.173 0.173-0.275 0.405-0.283 0.65-0.683 10.667-9.6 19.017-20.3 19.017-2.317 0-3.8-0.4-4.683-0.8 1.883-0.95 4.967-2.817 6.85-5.65 0.075-0.117 0.126-0.249 0.148-0.386s0.018-0.278-0.015-0.414c-0.036-0.139-0.1-0.268-0.189-0.38s-0.201-0.204-0.328-0.27c-0.033 0-2.533-1.3-4.7-4.267-2.583-3.533-3.6-7.85-3.033-12.833 2.433 2.067 7.683 5.967 13.783 6.983 0.144 0.027 0.291 0.022 0.433-0.015s0.273-0.105 0.384-0.199c0.112-0.094 0.201-0.212 0.262-0.345s0.090-0.278 0.088-0.424v-2.667c0.013-1.51 0.624-2.954 1.698-4.016s2.525-1.655 4.036-1.651c1.091 0.016 2.155 0.345 3.065 0.947s1.628 1.454 2.068 2.453c0.076 0.18 0.204 0.333 0.367 0.439s0.355 0.163 0.549 0.16h3.467l-3.667 3.667z"></path>
</symbol>
<symbol id="icon-instagram" viewBox="0 0 32 32">
<path d="M15.474 8.211c-1.437 0-2.841 0.426-4.035 1.224s-2.125 1.932-2.675 3.26c-0.55 1.327-0.694 2.788-0.413 4.196s0.972 2.703 1.988 3.719 2.31 1.707 3.719 1.988c1.409 0.28 2.869 0.136 4.196-0.413s2.461-1.481 3.26-2.675c0.798-1.194 1.224-2.599 1.224-4.035 0-1.926-0.765-3.774-2.127-5.136s-3.21-2.127-5.136-2.127zM15.474 20.842c-1.062 0-2.1-0.315-2.983-0.905s-1.571-1.428-1.977-2.409c-0.406-0.981-0.513-2.060-0.305-3.102s0.718-1.998 1.469-2.749c0.751-0.751 1.707-1.262 2.749-1.469s2.121-0.101 3.102 0.305c0.981 0.406 1.819 1.094 2.409 1.977s0.905 1.921 0.905 2.983c-0.004 1.422-0.571 2.786-1.577 3.791s-2.369 1.573-3.791 1.577zM22.421 0h-13.895c-2.261 0-4.43 0.898-6.029 2.497s-2.497 3.768-2.497 6.029v13.895c0 2.261 0.898 4.43 2.497 6.029s3.768 2.497 6.029 2.497h13.895c2.261 0 4.43-0.898 6.029-2.497s2.497-3.768 2.497-6.029v-13.895c0-2.261-0.898-4.43-2.497-6.029s-3.768-2.497-6.029-2.497zM29.053 22.421c0 1.759-0.699 3.446-1.942 4.689s-2.93 1.942-4.689 1.942h-13.895c-1.759 0-3.446-0.699-4.689-1.942s-1.942-2.93-1.942-4.689v-13.895c0-1.759 0.699-3.446 1.942-4.689s2.93-1.942 4.689-1.942h13.895c1.759 0 3.446 0.699 4.689 1.942s1.942 2.93 1.942 4.689v13.895zM25.263 7.263c0 0.312-0.093 0.618-0.266 0.877s-0.42 0.462-0.709 0.582c-0.288 0.12-0.606 0.151-0.912 0.090s-0.588-0.211-0.808-0.432c-0.221-0.221-0.371-0.502-0.432-0.808s-0.030-0.624 0.090-0.912c0.119-0.288 0.322-0.535 0.582-0.709s0.565-0.266 0.877-0.266c0.419 0 0.82 0.166 1.116 0.462s0.462 0.698 0.462 1.116z"></path>
</symbol>
<symbol id="icon-pinterest" viewBox="0 0 32 32">
<path d="M28.2 12.897c0 3.308-1.155 6.328-3.252 8.509-1.95 2.028-4.592 3.191-7.248 3.191-2.913 0-4.732-1.060-5.794-2.046l-1.729 7.35c-0.046 0.198-0.158 0.374-0.317 0.501s-0.356 0.195-0.559 0.195c-0.069 0-0.138-0.008-0.206-0.024-0.232-0.055-0.433-0.199-0.559-0.402s-0.166-0.447-0.111-0.68l4.8-20.4c0.025-0.117 0.073-0.228 0.141-0.327s0.156-0.182 0.257-0.247c0.101-0.064 0.214-0.108 0.332-0.128s0.239-0.016 0.356 0.011c0.117 0.027 0.227 0.078 0.324 0.148s0.179 0.16 0.241 0.262c0.062 0.103 0.103 0.216 0.12 0.335s0.011 0.239-0.019 0.356l-2.563 10.895c0.42 0.649 1.869 2.4 5.288 2.4 4.276 0 8.7-3.704 8.7-9.9-0-1.702-0.393-3.382-1.146-4.908s-1.848-2.859-3.198-3.895c-1.351-1.036-2.921-1.748-4.591-2.080s-3.393-0.276-5.037 0.165c-1.644 0.441-3.165 1.253-4.445 2.376s-2.285 2.524-2.936 4.096c-0.652 1.573-0.933 3.274-0.822 4.973s0.611 3.349 1.461 4.824c0.062 0.103 0.102 0.216 0.12 0.335s0.011 0.239-0.019 0.355c-0.030 0.116-0.083 0.224-0.155 0.32s-0.163 0.175-0.266 0.235c-0.104 0.060-0.218 0.098-0.337 0.113s-0.239 0.006-0.354-0.026c-0.115-0.032-0.223-0.087-0.317-0.161s-0.172-0.166-0.23-0.271c-0.989-1.714-1.57-3.632-1.699-5.606s0.198-3.952 0.955-5.779c0.757-1.828 1.925-3.457 3.413-4.761s3.255-2.249 5.166-2.761c1.911-0.512 3.914-0.578 5.855-0.192s3.766 1.213 5.336 2.417c1.57 1.204 2.841 2.753 3.717 4.528s1.331 3.726 1.331 5.704z"></path>
</symbol>
<symbol id="icon-behance" viewBox="0 0 32 32">
<path d="M19.429 8.476c0-0.227 0.090-0.445 0.251-0.606s0.379-0.251 0.606-0.251h9.143c0.227 0 0.445 0.090 0.606 0.251s0.251 0.379 0.251 0.606-0.090 0.445-0.251 0.606c-0.161 0.161-0.379 0.251-0.606 0.251h-9.143c-0.227 0-0.445-0.090-0.606-0.251s-0.251-0.379-0.251-0.606zM31.429 18.762c0 0.227-0.090 0.445-0.251 0.606s-0.379 0.251-0.606 0.251h-10.5c0.204 1.121 0.794 2.135 1.669 2.866s1.977 1.132 3.117 1.134c0.638 0.004 1.27-0.12 1.86-0.366s1.123-0.607 1.569-1.063c0.163-0.158 0.381-0.246 0.607-0.246s0.445 0.088 0.607 0.246c0.082 0.079 0.147 0.173 0.191 0.277s0.067 0.217 0.067 0.33-0.023 0.226-0.067 0.33c-0.044 0.104-0.109 0.199-0.191 0.277-1.076 1.074-2.491 1.742-4.004 1.89s-3.031-0.234-4.294-1.080c-1.263-0.846-2.194-2.104-2.634-3.559s-0.362-3.018 0.222-4.422c0.583-1.404 1.635-2.563 2.977-3.278s2.89-0.943 4.381-0.645 2.832 1.104 3.796 2.281c0.963 1.176 1.489 2.65 1.487 4.171zM29.643 17.905c-0.195-1.127-0.783-2.15-1.658-2.886s-1.983-1.141-3.127-1.141-2.252 0.404-3.127 1.141c-0.876 0.737-1.463 1.759-1.658 2.886h9.571zM16 19.619c0 1.516-0.602 2.969-1.674 4.041s-2.525 1.674-4.041 1.674h-9.429c-0.227 0-0.445-0.090-0.606-0.251s-0.251-0.379-0.251-0.606v-18.286c0-0.227 0.090-0.445 0.251-0.606s0.379-0.251 0.606-0.251h7.714c1.028-0 2.033 0.308 2.885 0.885s1.511 1.396 1.892 2.351c0.381 0.955 0.468 2.003 0.248 3.007s-0.736 1.92-1.482 2.629c1.133 0.383 2.117 1.111 2.814 2.082s1.072 2.137 1.072 3.332zM1.714 13.905h6.857c0.909 0 1.781-0.361 2.424-1.004s1.004-1.515 1.004-2.424c0-0.909-0.361-1.781-1.004-2.424s-1.515-1.004-2.424-1.004h-6.857v6.857zM14.286 19.619c-0.004-1.060-0.426-2.075-1.176-2.824s-1.765-1.172-2.824-1.176h-8.571v8h8.571c1.060-0.004 2.075-0.426 2.824-1.176s1.172-1.765 1.176-2.824z"></path>
</symbol>
<symbol id="icon-ball" viewBox="0 0 32 32">
<path d="M30.6 15.405v-0.105c0.001-2.274-0.506-4.52-1.484-6.573s-2.404-3.861-4.171-5.292l-0.075-0.075-0.075-0.060c-2.7-2.143-6.048-3.307-9.495-3.3-2.292-0.006-4.554 0.512-6.615 1.515l-0.18 0.075c-2.090 1.042-3.915 2.547-5.337 4.4s-2.402 4.006-2.868 6.295v0.030c-0.2 0.982-0.301 1.982-0.3 2.985 0.001 2.377 0.555 4.721 1.62 6.845s2.611 3.972 4.515 5.395l0.15 0.12h0.030c2.608 1.907 5.754 2.936 8.985 2.94 1.732 0.005 3.453-0.289 5.085-0.87l0.090-0.030c2.94-1.063 5.485-2.999 7.294-5.548s2.797-5.59 2.831-8.716v-0.030zM28.77 14.445c-0.48-0.030-0.975-0.045-1.47-0.045-2.293-0.003-4.575 0.315-6.78 0.945-0.555-1.683-1.279-3.307-2.16-4.845l-0.075-0.105c2.294-1.352 4.36-3.058 6.12-5.055 2.582 2.353 4.147 5.618 4.365 9.105zM22.995 4.215c-1.631 1.852-3.551 3.427-5.685 4.665-1.726-2.486-3.885-4.64-6.375-6.36 2.003-0.681 4.137-0.882 6.232-0.588s4.091 1.076 5.828 2.283zM8.955 3.39c2.656 1.637 4.952 3.796 6.75 6.345-3.124 1.493-6.543 2.267-10.005 2.265-1.145-0.002-2.288-0.088-3.42-0.255 0.487-1.773 1.329-3.428 2.477-4.865s2.576-2.624 4.198-3.49zM1.8 15.3c0.002-0.597 0.042-1.193 0.12-1.785 1.252 0.185 2.515 0.28 3.78 0.285 3.812 0.008 7.575-0.865 10.995-2.55l0.105 0.165c0.824 1.421 1.498 2.924 2.010 4.485-1.357 0.485-2.668 1.092-3.915 1.815-3.36 1.925-6.222 4.612-8.355 7.845-1.485-1.265-2.678-2.838-3.497-4.609s-1.243-3.699-1.243-5.651zM7.98 26.64c2.722-4.125 6.682-7.281 11.31-9.015 0.432 1.777 0.649 3.601 0.645 5.43 0.007 1.721-0.185 3.437-0.57 5.115-1.893 0.6-3.895 0.774-5.864 0.509s-3.854-0.961-5.521-2.040zM21.375 27.36c0.24-1.422 0.36-2.862 0.36-4.305 0.002-2.017-0.24-4.026-0.72-5.985 2.046-0.574 4.16-0.867 6.285-0.87 0.495 0 0.975 0.015 1.47 0.045-0.166 2.334-0.935 4.585-2.231 6.533s-3.075 3.527-5.164 4.582z"></path>
</symbol>
<symbol id="icon-facebook" viewBox="0 0 32 32">
<path d="M30.6 15.3c0-3.026-0.897-5.984-2.579-8.5s-4.071-4.477-6.866-5.635-5.872-1.461-8.84-0.871c-2.968 0.59-5.694 2.048-7.834 4.187s-3.597 4.866-4.187 7.834c-0.59 2.968-0.287 6.044 0.871 8.84s3.119 5.185 5.635 6.866c2.516 1.681 5.474 2.579 8.5 2.579 4.057-0.004 7.946-1.617 10.814-4.486s4.482-6.758 4.486-10.814zM16.2 28.77v-10.17h3.9c0.239 0 0.468-0.095 0.636-0.264s0.264-0.398 0.264-0.636-0.095-0.468-0.264-0.636c-0.169-0.169-0.398-0.264-0.636-0.264h-3.9v-3.9c0.004-0.715 0.29-1.399 0.795-1.905s1.19-0.791 1.905-0.795h2.4c0.239 0 0.468-0.095 0.636-0.264s0.264-0.398 0.264-0.636-0.095-0.468-0.264-0.636c-0.169-0.169-0.398-0.264-0.636-0.264h-2.4c-1.192 0.004-2.335 0.479-3.178 1.322s-1.318 1.985-1.322 3.178v3.9h-3.9c-0.239 0-0.468 0.095-0.636 0.264s-0.264 0.398-0.264 0.636 0.095 0.468 0.264 0.636c0.169 0.169 0.398 0.264 0.636 0.264h3.9v10.17c-3.495-0.234-6.762-1.816-9.111-4.413s-3.598-6.006-3.481-9.507c0.117-3.501 1.59-6.819 4.107-9.254s5.883-3.796 9.385-3.796c3.502 0 6.868 1.361 9.385 3.796s3.99 5.753 4.107 9.254c0.117 3.5-1.131 6.909-3.481 9.507s-5.617 4.18-9.112 4.413z"></path>
</symbol>
<symbol id="icon-phone" viewBox="0 0 32 32">
<path d="M22.421 30.899c-12.363 0-22.421-10.058-22.421-22.421 0.002-2.075 0.76-4.079 2.131-5.636s3.263-2.562 5.321-2.827c0.474-0.055 0.952 0.044 1.365 0.283s0.737 0.605 0.924 1.044l3.174 7.405c0.144 0.335 0.203 0.7 0.173 1.064s-0.149 0.714-0.347 1.020l-2.637 4.011c-0.026 0.045-0.041 0.096-0.044 0.148s0.007 0.104 0.028 0.152c1.213 2.487 3.226 4.494 5.716 5.7 0.048 0.022 0.102 0.030 0.154 0.025s0.103-0.025 0.146-0.056l3.963-2.637c0.304-0.204 0.654-0.328 1.018-0.361s0.731 0.026 1.066 0.172l7.405 3.174c0.438 0.188 0.805 0.512 1.044 0.924s0.338 0.891 0.283 1.365c-0.265 2.058-1.27 3.95-2.827 5.321s-3.561 2.129-5.636 2.131zM7.721 1.894h-0.032c-1.599 0.21-3.068 0.993-4.133 2.204s-1.656 2.767-1.661 4.38c0.004 5.443 2.168 10.661 6.017 14.51s9.067 6.012 14.51 6.017c1.613-0.005 3.169-0.596 4.38-1.661s1.994-2.534 2.204-4.133c0.005-0.066-0.010-0.132-0.044-0.188s-0.085-0.101-0.146-0.127l-7.405-3.174c-0.049-0.019-0.102-0.026-0.154-0.020s-0.102 0.023-0.146 0.052l-3.947 2.637c-0.32 0.21-0.688 0.335-1.069 0.362s-0.764-0.043-1.11-0.204c-2.872-1.398-5.195-3.716-6.6-6.584-0.164-0.342-0.237-0.721-0.212-1.1s0.147-0.745 0.354-1.063l2.621-4.011c0.031-0.043 0.051-0.093 0.056-0.146s-0.003-0.106-0.025-0.154l-3.174-7.405c-0.024-0.055-0.064-0.103-0.114-0.137s-0.109-0.052-0.17-0.053z"></path>
</symbol>
<symbol id="icon-mail" viewBox="0 0 32 32">
<path d="M29.7 4h-28.8c-0.239 0-0.468 0.095-0.636 0.264s-0.264 0.398-0.264 0.636v20.4c0 0.557 0.221 1.091 0.615 1.485s0.928 0.615 1.485 0.615h26.4c0.557 0 1.091-0.221 1.485-0.615s0.615-0.928 0.615-1.485v-20.4c0-0.239-0.095-0.468-0.264-0.636s-0.398-0.264-0.636-0.264zM27.39 5.8l-12.090 11.085-12.090-11.085h24.18zM28.5 25.6h-26.4c-0.080 0-0.156-0.032-0.212-0.088s-0.088-0.133-0.088-0.212v-18.36l12.885 11.82c0.168 0.153 0.388 0.238 0.615 0.238s0.447-0.085 0.615-0.238l12.885-11.82v18.36c0 0.080-0.032 0.156-0.088 0.212s-0.133 0.088-0.212 0.088z"></path>
</symbol>
<symbol id="icon-info" viewBox="0 0 32 32">
<path d="M17.4 22.5c0 0.239-0.095 0.468-0.264 0.636s-0.398 0.264-0.636 0.264c-0.557 0-1.091-0.221-1.485-0.615s-0.615-0.928-0.615-1.485v-6c0-0.080-0.032-0.156-0.088-0.212s-0.133-0.088-0.212-0.088c-0.239 0-0.468-0.095-0.636-0.264s-0.264-0.398-0.264-0.636c0-0.239 0.095-0.468 0.264-0.636s0.398-0.264 0.636-0.264c0.557 0 1.091 0.221 1.485 0.615s0.615 0.928 0.615 1.485v6c0 0.080 0.032 0.156 0.088 0.212s0.133 0.088 0.212 0.088c0.239 0 0.468 0.095 0.636 0.264s0.264 0.398 0.264 0.636zM14.7 10.2c0.297 0 0.587-0.088 0.833-0.253s0.439-0.399 0.552-0.673c0.114-0.274 0.143-0.576 0.085-0.867s-0.201-0.558-0.411-0.768c-0.21-0.21-0.477-0.353-0.768-0.411s-0.593-0.028-0.867 0.085c-0.274 0.114-0.508 0.306-0.673 0.552s-0.253 0.537-0.253 0.833c0 0.398 0.158 0.779 0.439 1.061s0.663 0.439 1.061 0.439zM30.6 15.3c0 3.026-0.897 5.984-2.579 8.5s-4.071 4.477-6.866 5.635-5.872 1.461-8.84 0.871c-2.968-0.59-5.694-2.048-7.834-4.187s-3.597-4.866-4.187-7.834c-0.59-2.968-0.287-6.044 0.871-8.84s3.119-5.185 5.635-6.866c2.516-1.681 5.474-2.579 8.5-2.579 4.056 0.005 7.945 1.618 10.813 4.487s4.482 6.757 4.487 10.813zM28.8 15.3c0-2.67-0.792-5.28-2.275-7.5s-3.592-3.95-6.059-4.972c-2.467-1.022-5.181-1.289-7.8-0.768s-5.024 1.807-6.912 3.695c-1.888 1.888-3.174 4.293-3.695 6.912s-0.254 5.333 0.768 7.8c1.022 2.467 2.752 4.575 4.972 6.059s4.83 2.275 7.5 2.275c3.579-0.004 7.011-1.428 9.542-3.958s3.954-5.962 3.958-9.542z"></path>
</symbol>
<symbol id="icon-link" viewBox="0 0 32 32">
<path d="M17.025 25.633c0.093 0.093 0.167 0.203 0.217 0.325s0.076 0.252 0.076 0.383c0 0.131-0.026 0.262-0.076 0.383s-0.124 0.232-0.217 0.325l-1.658 1.657c-1.688 1.688-3.978 2.637-6.365 2.637s-4.677-0.948-6.365-2.637c-1.688-1.688-2.636-3.978-2.636-6.365s0.948-4.677 2.636-6.365l4.018-4.020c1.623-1.625 3.806-2.568 6.102-2.636s4.53 0.745 6.247 2.271c0.099 0.088 0.179 0.194 0.236 0.312s0.091 0.247 0.099 0.379c0.008 0.132-0.011 0.263-0.054 0.388s-0.11 0.239-0.198 0.338c-0.087 0.098-0.194 0.179-0.312 0.236s-0.247 0.091-0.379 0.099c-0.132 0.008-0.263-0.011-0.388-0.054s-0.239-0.111-0.338-0.198c-1.335-1.186-3.072-1.817-4.857-1.764s-3.481 0.786-4.743 2.049l-4.020 4.013c-1.313 1.313-2.051 3.094-2.051 4.952s0.738 3.638 2.051 4.952c1.313 1.313 3.094 2.051 4.952 2.051s3.638-0.738 4.952-2.051l1.657-1.658c0.093-0.093 0.203-0.167 0.325-0.217s0.252-0.076 0.383-0.076c0.131 0 0.262 0.026 0.383 0.076s0.232 0.124 0.325 0.217zM28.703 2.633c-1.689-1.686-3.978-2.633-6.365-2.633s-4.676 0.947-6.365 2.633l-1.658 1.657c-0.188 0.188-0.293 0.442-0.293 0.707s0.105 0.52 0.293 0.707c0.188 0.188 0.442 0.293 0.707 0.293s0.52-0.105 0.707-0.293l1.657-1.667c1.313-1.313 3.094-2.051 4.952-2.051s3.638 0.738 4.952 2.051c1.313 1.313 2.051 3.094 2.051 4.952s-0.738 3.638-2.051 4.952l-4.020 4.032c-1.262 1.263-2.959 1.996-4.743 2.049s-3.522-0.578-4.857-1.764c-0.199-0.177-0.46-0.267-0.726-0.252s-0.514 0.136-0.691 0.335c-0.177 0.199-0.267 0.46-0.252 0.726s0.136 0.514 0.335 0.691c1.716 1.525 3.95 2.337 6.245 2.269s4.477-1.010 6.1-2.634l4.018-4.020c0.837-0.836 1.501-1.828 1.954-2.921s0.687-2.264 0.687-3.446c0-1.183-0.232-2.354-0.685-3.447s-1.116-2.085-1.953-2.922v-0.005z"></path>
</symbol>
<symbol id="icon-downleft" viewBox="0 0 32 32">
<path d="M29.614 2.173l-25.221 25.243h19.179c0.341 0 0.668 0.136 0.909 0.377s0.377 0.568 0.377 0.909c0 0.341-0.136 0.668-0.377 0.909s-0.568 0.376-0.909 0.376h-22.286c-0.341 0-0.668-0.135-0.909-0.376s-0.377-0.568-0.377-0.909v-22.286c0-0.341 0.135-0.668 0.377-0.909s0.568-0.377 0.909-0.377c0.341 0 0.668 0.135 0.909 0.377s0.377 0.568 0.377 0.909v19.179l25.243-25.221c0.239-0.239 0.562-0.373 0.9-0.373s0.661 0.134 0.9 0.373c0.239 0.239 0.373 0.562 0.373 0.9s-0.134 0.661-0.373 0.9z"></path>
</symbol>
<symbol id="icon-down" viewBox="0 0 27 32">
<path d="M25.69 19.033l-12 12c-0.090 0.095-0.199 0.17-0.319 0.222s-0.25 0.078-0.381 0.078c-0.131 0-0.26-0.027-0.381-0.078s-0.229-0.127-0.319-0.222l-12-12c-0.186-0.186-0.29-0.437-0.29-0.7s0.104-0.514 0.29-0.7c0.186-0.186 0.437-0.29 0.7-0.29s0.514 0.104 0.7 0.29l10.3 10.283v-26.917c0-0.265 0.105-0.52 0.293-0.707s0.442-0.293 0.707-0.293c0.265 0 0.52 0.105 0.707 0.293s0.293 0.442 0.293 0.707v26.917l10.3-10.283c0.186-0.186 0.438-0.29 0.7-0.29s0.515 0.104 0.7 0.29c0.186 0.186 0.29 0.437 0.29 0.7s-0.104 0.514-0.29 0.7z"></path>
</symbol>
<symbol id="icon-downright" viewBox="0 0 32 32">
<path d="M29.987 6.416v22.286c0 0.341-0.135 0.668-0.376 0.909s-0.568 0.376-0.909 0.376h-22.286c-0.341 0-0.668-0.135-0.909-0.376s-0.377-0.568-0.377-0.909c0-0.341 0.135-0.668 0.377-0.909s0.568-0.377 0.909-0.377h19.179l-25.221-25.243c-0.239-0.239-0.373-0.562-0.373-0.9s0.134-0.661 0.373-0.9c0.239-0.239 0.562-0.373 0.9-0.373s0.661 0.134 0.9 0.373l25.243 25.221v-19.179c0-0.341 0.136-0.668 0.377-0.909s0.568-0.377 0.909-0.377c0.341 0 0.668 0.135 0.909 0.377s0.376 0.568 0.376 0.909z"></path>
</symbol>
<symbol id="icon-left" viewBox="0 0 32 32">
<path d="M31.333 15.657c0 0.265-0.105 0.52-0.293 0.707s-0.442 0.293-0.707 0.293h-26.917l10.283 10.3c0.092 0.092 0.165 0.201 0.215 0.321s0.075 0.249 0.075 0.379c0 0.13-0.026 0.259-0.075 0.379s-0.123 0.229-0.215 0.321-0.201 0.165-0.321 0.215c-0.12 0.050-0.249 0.075-0.379 0.075s-0.259-0.026-0.379-0.075c-0.12-0.050-0.229-0.123-0.321-0.215l-12-12c-0.095-0.090-0.17-0.199-0.222-0.319s-0.078-0.25-0.078-0.381c0-0.131 0.027-0.26 0.078-0.381s0.127-0.229 0.222-0.319l12-12c0.186-0.186 0.437-0.29 0.7-0.29s0.514 0.104 0.7 0.29c0.186 0.186 0.29 0.437 0.29 0.7s-0.104 0.514-0.29 0.7l-10.283 10.3h26.917c0.265 0 0.52 0.105 0.707 0.293s0.293 0.442 0.293 0.707z"></path>
</symbol>
<symbol id="icon-right" viewBox="0 0 32 32">
<path d="M31.033 16.357l-12 12c-0.092 0.092-0.201 0.165-0.321 0.215s-0.249 0.075-0.379 0.075c-0.13 0-0.259-0.026-0.379-0.075s-0.229-0.123-0.321-0.215c-0.092-0.092-0.165-0.201-0.215-0.321s-0.075-0.249-0.075-0.379c0-0.13 0.026-0.259 0.075-0.379s0.123-0.229 0.215-0.321l10.283-10.3h-26.917c-0.265 0-0.52-0.105-0.707-0.293s-0.293-0.442-0.293-0.707c0-0.265 0.105-0.52 0.293-0.707s0.442-0.293 0.707-0.293h26.917l-10.283-10.3c-0.186-0.186-0.29-0.437-0.29-0.7s0.104-0.514 0.29-0.7c0.186-0.186 0.437-0.29 0.7-0.29s0.514 0.104 0.7 0.29l12 12c0.095 0.090 0.17 0.199 0.222 0.319s0.078 0.25 0.078 0.381c0 0.131-0.027 0.26-0.078 0.381s-0.127 0.229-0.222 0.319z"></path>
</symbol>
<symbol id="icon-upleft" viewBox="0 0 32 32">
<path d="M29.614 29.614c-0.116 0.122-0.256 0.219-0.41 0.285s-0.321 0.101-0.49 0.101c-0.168 0-0.335-0.034-0.49-0.101s-0.294-0.163-0.41-0.285l-25.243-25.221v19.179c0 0.341-0.135 0.668-0.377 0.909s-0.568 0.377-0.909 0.377-0.668-0.136-0.909-0.377c-0.241-0.241-0.377-0.568-0.377-0.909v-22.286c0-0.341 0.135-0.668 0.377-0.909s0.568-0.377 0.909-0.377h22.286c0.341 0 0.668 0.135 0.909 0.377s0.377 0.568 0.377 0.909-0.136 0.668-0.377 0.909c-0.241 0.241-0.568 0.377-0.909 0.377h-19.179l25.221 25.243c0.122 0.116 0.219 0.256 0.285 0.41s0.101 0.321 0.101 0.49c0 0.168-0.034 0.335-0.101 0.49s-0.163 0.294-0.285 0.41z"></path>
</symbol>
<symbol id="icon-up" viewBox="0 0 27 32">
<path d="M25.69 13.7c-0.090 0.095-0.199 0.17-0.319 0.222s-0.25 0.078-0.381 0.078c-0.131 0-0.26-0.027-0.381-0.078s-0.229-0.127-0.319-0.222l-10.3-10.283v26.917c0 0.265-0.105 0.52-0.293 0.707s-0.442 0.293-0.707 0.293-0.52-0.105-0.707-0.293c-0.188-0.187-0.293-0.442-0.293-0.707v-26.917l-10.3 10.283c-0.186 0.186-0.437 0.29-0.7 0.29s-0.514-0.104-0.7-0.29c-0.186-0.186-0.29-0.437-0.29-0.7s0.104-0.514 0.29-0.7l12-12c0.090-0.095 0.199-0.17 0.319-0.222s0.25-0.078 0.381-0.078c0.131 0 0.26 0.027 0.381 0.078s0.229 0.127 0.319 0.222l12 12c0.095 0.090 0.17 0.199 0.222 0.319s0.078 0.25 0.078 0.381c0 0.131-0.026 0.26-0.078 0.381s-0.127 0.229-0.222 0.319z"></path>
</symbol>
<symbol id="icon-upright" viewBox="0 0 32 32">
<path d="M29.987 1.286v22.286c0 0.341-0.135 0.668-0.376 0.909s-0.568 0.377-0.909 0.377c-0.341 0-0.668-0.136-0.909-0.377s-0.377-0.568-0.377-0.909v-19.179l-25.243 25.221c-0.239 0.239-0.562 0.373-0.9 0.373s-0.661-0.134-0.9-0.373c-0.239-0.239-0.373-0.562-0.373-0.9s0.134-0.661 0.373-0.9l25.221-25.243h-19.179c-0.341 0-0.668-0.135-0.909-0.377s-0.377-0.568-0.377-0.909c0-0.341 0.135-0.668 0.377-0.909s0.568-0.377 0.909-0.377h22.286c0.341 0 0.668 0.135 0.909 0.377s0.376 0.568 0.376 0.909z"></path>
</symbol>
<symbol id="icon-check" viewBox="0 0 32 32">
<path d="M10.931 26.578c-0.139 0-0.276-0.028-0.403-0.083s-0.242-0.135-0.338-0.235l-9.882-9.882c-0.097-0.097-0.175-0.213-0.227-0.34s-0.080-0.263-0.080-0.401c0-0.138 0.027-0.274 0.080-0.401s0.13-0.243 0.227-0.34c0.097-0.097 0.213-0.175 0.34-0.227s0.263-0.080 0.401-0.080c0.138 0 0.274 0.027 0.401 0.080s0.243 0.13 0.34 0.227l9.141 9.124 19.024-19.006c0.197-0.197 0.463-0.307 0.741-0.307s0.545 0.11 0.741 0.307 0.307 0.463 0.307 0.741c0 0.278-0.11 0.545-0.307 0.741l-19.765 19.765c-0.096 0.1-0.211 0.18-0.338 0.235s-0.265 0.083-0.403 0.083z"></path>
</symbol>
<symbol id="icon-minus" viewBox="0 0 32 32">
<path d="M30.333 16.222h-29.333c-0.265 0-0.52-0.105-0.707-0.293s-0.293-0.442-0.293-0.707c0-0.265 0.105-0.52 0.293-0.707s0.442-0.293 0.707-0.293h29.333c0.265 0 0.52 0.105 0.707 0.293s0.293 0.442 0.293 0.707-0.105 0.52-0.293 0.707c-0.187 0.188-0.442 0.293-0.707 0.293z"></path>
</symbol>
<symbol id="icon-plus" viewBox="0 0 32 32">
<path d="M31.333 15.667c0 0.265-0.105 0.52-0.293 0.707s-0.442 0.293-0.707 0.293h-13.667v13.667c0 0.265-0.105 0.52-0.293 0.707s-0.442 0.293-0.707 0.293-0.52-0.105-0.707-0.293c-0.188-0.187-0.293-0.442-0.293-0.707v-13.667h-13.667c-0.265 0-0.52-0.105-0.707-0.293s-0.293-0.442-0.293-0.707c0-0.265 0.105-0.52 0.293-0.707s0.442-0.293 0.707-0.293h13.667v-13.667c0-0.265 0.105-0.52 0.293-0.707s0.442-0.293 0.707-0.293c0.265 0 0.52 0.105 0.707 0.293s0.293 0.442 0.293 0.707v13.667h13.667c0.265 0 0.52 0.105 0.707 0.293s0.293 0.442 0.293 0.707z"></path>
</symbol>
<symbol id="icon-ph_instagram-logo-light" viewBox="0 0 32 32">
<path d="M16 10.25c-1.137 0-2.249 0.337-3.195 0.969s-1.683 1.53-2.118 2.581c-0.435 1.051-0.549 2.207-0.327 3.322s0.77 2.14 1.574 2.944 1.829 1.352 2.944 1.574c1.115 0.222 2.271 0.108 3.322-0.327s1.949-1.172 2.581-2.118c0.632-0.946 0.969-2.057 0.969-3.195 0-1.525-0.606-2.988-1.684-4.066s-2.541-1.684-4.066-1.684zM16 20.25c-0.841 0-1.662-0.249-2.361-0.716s-1.244-1.131-1.565-1.907-0.406-1.631-0.242-2.456c0.164-0.824 0.569-1.582 1.163-2.176s1.352-0.999 2.176-1.163c0.825-0.164 1.679-0.080 2.456 0.242s1.44 0.866 1.907 1.565c0.467 0.699 0.716 1.521 0.716 2.361-0.003 1.126-0.452 2.205-1.248 3.002s-1.875 1.245-3.002 1.248zM21.5 3.75h-11c-1.79 0-3.507 0.711-4.773 1.977s-1.977 2.983-1.977 4.773v11c0 1.79 0.711 3.507 1.977 4.773s2.983 1.977 4.773 1.977h11c1.79 0 3.507-0.711 4.773-1.977s1.977-2.983 1.977-4.773v-11c0-1.79-0.711-3.507-1.977-4.773s-2.983-1.977-4.773-1.977zM26.75 21.5c0 1.392-0.553 2.728-1.538 3.712s-2.32 1.538-3.712 1.538h-11c-1.392 0-2.728-0.553-3.712-1.538s-1.538-2.32-1.538-3.712v-11c0-1.392 0.553-2.728 1.538-3.712s2.32-1.538 3.712-1.538h11c1.392 0 2.728 0.553 3.712 1.538s1.538 2.32 1.538 3.712v11zM23.75 9.5c0 0.247-0.073 0.489-0.211 0.694s-0.333 0.366-0.561 0.46c-0.228 0.095-0.48 0.119-0.722 0.071s-0.465-0.167-0.64-0.342c-0.175-0.175-0.294-0.398-0.342-0.64s-0.023-0.494 0.071-0.722c0.095-0.228 0.255-0.424 0.46-0.561s0.447-0.211 0.694-0.211c0.331 0 0.649 0.132 0.884 0.366s0.366 0.552 0.366 0.884z"></path>
</symbol>
</defs>
</svg>
